<?xml version="1.0" encoding="UTF-8" standalone="no"?>
<!-- Created with Inkscape (http://www.inkscape.org/) -->

<svg
   width="48"
   height="48"
   viewBox="0 0 12.7 12.7"
   version="1.1"
   id="svg828"
   inkscape:version="1.1.2 (0a00cf5339, 2022-02-04)"
   sodipodi:docname="clean_wfdb.svg"
   xmlns:inkscape="http://www.inkscape.org/namespaces/inkscape"
   xmlns:sodipodi="http://sodipodi.sourceforge.net/DTD/sodipodi-0.dtd"
   xmlns="http://www.w3.org/2000/svg"
   xmlns:svg="http://www.w3.org/2000/svg">
  <sodipodi:namedview
     id="namedview830"
     pagecolor="#ffffff"
     bordercolor="#666666"
     borderopacity="1.0"
     inkscape:pageshadow="2"
     inkscape:pageopacity="0.0"
     inkscape:pagecheckerboard="0"
     inkscape:document-units="mm"
     showgrid="false"
     units="px"
     inkscape:zoom="6.0079124"
     inkscape:cx="20.389778"
     inkscape:cy="31.957856"
     inkscape:window-width="1920"
     inkscape:window-height="1022"
     inkscape:window-x="1920"
     inkscape:window-y="0"
     inkscape:window-maximized="1"
     inkscape:current-layer="layer1" />
  <defs
     id="defs825" />
  <g
     inkscape:label="Layer 1"
     inkscape:groupmode="layer"
     id="layer1">
    <path
       style="fill:none;stroke:#000000;stroke-width:0.264583px;stroke-linecap:butt;stroke-linejoin:miter;stroke-opacity:1"
       d="m 0.50345043,6.2012972 c 0.13340268,-0.083747 -0.0407246,-0.2349587 0,-0.3379745 0.0225279,-0.056986 0.39396021,-0.2727883 0.44760589,-0.242261 0.091842,0.052263 0.17076668,0.1249511 0.26105238,0.1798593 0.1257674,0.076487 0.088207,0.031735 0.088207,0.1008311 0,0.018738 -0.00794,-0.03924 0,-0.056213 0.02461,-0.052623 0.2027419,-0.2875767 0.2218407,-0.309802 C 1.63077,5.4093437 1.8719746,5.1883674 2.0528521,5.1814364 c 1.968e-4,-7.7e-6 0,0.104285 0,0.190346 0,0.2589779 0,0.5179555 0,0.7769334 0,0.013459 -1.786e-4,0.2208707 0,0.2208718 0.018033,9.73e-5 0.022026,-0.030392 0.038255,-0.038255 C 2.4605113,6.1523613 2.919916,6.0779842 2.919916,5.6232994 c 0,-0.0081 0,0.016192 0,0.024289 0,0.054012 0,0.1080238 0,0.1620356 0,0.1174377 0,0.2348754 0,0.3523131 0,0.073399 0,0.1467972 0,0.2201958 0,0.1028176 0,0.2056352 0,0.3084528 0,0.8506251 0,1.7012504 0,2.5518755 0,0.015267 -0.03958,0.4591066 0,0.4995609 0.02849,0.029119 0.085385,0.017412 0.122215,0 0.024387,-0.011528 0.011404,-0.058838 0.034126,-0.073372 0.090051,-0.057601 0.1296321,-0.079355 0.1725978,-0.1690632 0.065968,-0.1377365 0,-0.6624878 0,-0.7730559 0,-0.312466 -0.01071,0.074937 0.0442,-0.308755 0.053369,-0.3729074 -0.061866,-0.7739792 0,-1.1454802 0.012986,-0.077979 0.075082,-0.1422196 0.088078,-0.2201971 0.025355,-0.1521243 0.044039,-0.4102663 0.044039,-0.5725088 0,-0.1121018 0.05431,-0.2063065 0.088078,-0.3071977 0.043702,-0.1305697 0,-0.3727563 0,-0.511217 0,-0.1450721 0,-0.496144 0,-0.4709105 0,0.2794109 0.00225,0.3780399 0.2228837,0.5724996 0.056545,0.049836 0.121635,0.089128 0.180382,0.1363483 0.016182,0.013007 0.023305,0.043032 0.044039,0.044039 0.061739,0.003 0.4186103,-0.4285475 0.4327578,-0.4780695 0.016129,-0.05646 0,-0.1174377 0,-0.1761567 0,-0.1302816 0.044039,-0.5186373 0.044039,-0.3883557 0,0.129354 -0.079562,0.5972514 0.044039,0.6611988 0.2199799,0.1138102 0.3743312,-0.2745759 0.5388454,-0.3064087 0.004,-7.673e-4 -0.014026,0.2586773 0,0.2747555 0.026507,0.030383 0.5150993,0.1616438 0.612258,0.2171475 0.067612,0.038625 0.317609,-0.2709113 0.336895,-0.347886 0.011369,-0.045372 0,-0.1248061 0,-0.1750923 0,-0.048243 0,0.096486 0,0.1447292 0,0.1172819 0,0.2345637 0,0.3518456 0,0.3495817 0,0.6991635 0,1.0487453 0,0.475765 -0.029692,0.9452652 -0.088293,1.4129419 -0.023524,0.187741 0.026801,0.385658 0,0.5728933 -0.067462,0.4713042 -0.044157,-0.3406039 -0.044157,0.3529447 0,0.069433 -0.040093,0.5291526 0.039072,0.5291526 0.260976,0 0.5603861,0.1362975 0.6602216,-0.2132126 0.066762,-0.2337239 0,-0.9387663 0,-1.2621231 0,-0.9157377 0,-1.8314754 0,-2.7472132 0,-0.0091 -0.00476,0.019553 0,0.027308 0.02631,0.042844 0.05676,0.083431 0.090756,0.1204733 0.026955,0.029371 0.4533281,0.4903321 0.499967,0.4497509 0.052507,-0.045687 0,-0.4443161 0,-0.520074 0,-0.010036 0,0.020074 0,0.03011 0,0.056797 0,0.1135941 0,0.1703911 0,0.1326761 0.2621727,-0.041952 0.3917074,-0.070652 0.083241,-0.018444 0.3404667,-0.089789 0.4428215,-0.04418 0.011967,0.00533 0,0.026204 0,0.039304 0.027782,0.027827 0.045407,0.073149 0.083348,0.083482 0.062658,0.017066 0.3951898,-0.2040676 0.4342844,-0.2627096 0.013698,-0.020548 -0.019619,-0.059087 0,-0.074082 0.045317,-0.034636 0.1145384,-0.01574 0.1665983,-0.039042 0.032452,-0.014679 0.064905,-0.029359 0.097357,-0.044039 0.014679,-0.016275 0.025133,-0.037742 0.044039,-0.048826 0.100948,-0.059183 0.2536259,0.1317104 0.3489155,0.1352502 0.045898,0.00169 0.1940801,-0.1059505 0.2552248,-0.127939 C 9.5504684,5.1822558 9.6242147,5.399524 9.7290172,5.4549926 9.84228,5.5149387 10.083979,5.16437 10.166495,5.2376593 c 0.05144,0.045691 -0.03962,0.243735 0,0.304101 0.06513,0.099229 0.200299,-0.1285899 0.307457,-0.1796428 0.05474,-0.02608 0.116678,-0.034088 0.17649,-0.044039 0.254444,-0.042332 1.026934,0.2032854 1.204948,0.094997 0.04168,-0.025352 0.105595,-0.1110647 0.151115,-0.1274646 0.05741,-0.020682 0.121893,-0.010411 0.172394,-0.044039 0.03412,-0.02272 0.04969,-0.071822 0.08829,-0.085611 0.07046,-0.025164 0.08389,0.1333746 0.08389,0.208194"
       id="path926" />
    <path
       style="fill:#0000ff;stroke:#0000ff;stroke-width:0.264583px;stroke-linecap:butt;stroke-linejoin:miter;stroke-opacity:1"
       d="m 2.7895616,6.1530137 c 0.1779524,-0.0443 0.3376356,-0.1715048 0.5145892,-0.2157754 0.028485,-0.00713 0.061825,0.013131 0.088089,0 0.014978,-0.00749 0,-0.372069 0,-0.2804726"
       id="path1229" />
    <path
       style="fill:#0000ff;stroke:#0000ff;stroke-width:0.264583px;stroke-linecap:butt;stroke-linejoin:miter;stroke-opacity:1"
       d="m 5.8758402,5.8576492 c 0.1779524,-0.0443 0.3376356,-0.1715048 0.5145892,-0.2157754 0.028485,-0.00713 0.061825,0.013131 0.088089,0 0.014978,-0.00749 0,-0.372069 0,-0.2804726"
       id="path1229-3" />
  </g>
</svg>
