<svg id="Layer_1" data-name="Layer 1" xmlns="http://www.w3.org/2000/svg" xmlns:xlink="http://www.w3.org/1999/xlink" viewBox="0 0 1012.04 245.96"><defs><radialGradient id="radial-gradient" cx="-706.67" cy="1009.78" r="65.68" gradientTransform="translate(-91.35 -1148.02) rotate(-45)" gradientUnits="userSpaceOnUse"><stop offset="0.42" stop-color="#381e43"/><stop offset="0.61" stop-color="#5d02c1"/><stop offset="0.83" stop-color="#690eea"/><stop offset="1" stop-color="#b50eea"/></radialGradient><radialGradient id="radial-gradient-2" cx="-686.94" cy="1050.28" r="64.24" xlink:href="#radial-gradient"/><radialGradient id="radial-gradient-3" cx="-747.18" cy="990.06" r="64.24" xlink:href="#radial-gradient"/><radialGradient id="radial-gradient-4" cx="-787.69" cy="1009.79" r="65.68" xlink:href="#radial-gradient"/><radialGradient id="radial-gradient-5" cx="-807.4" cy="1050.3" r="64.24" xlink:href="#radial-gradient"/><radialGradient id="radial-gradient-6" cx="-787.69" cy="1090.8" r="65.68" xlink:href="#radial-gradient"/><radialGradient id="radial-gradient-7" cx="-747.17" cy="1110.52" r="64.24" xlink:href="#radial-gradient"/><radialGradient id="radial-gradient-8" cx="-706.65" cy="1090.8" r="65.66" xlink:href="#radial-gradient"/><radialGradient id="radial-gradient-9" cx="-722.36" cy="1025.48" r="43.5" gradientTransform="translate(-91.35 -1148.02) rotate(-45)" gradientUnits="userSpaceOnUse"><stop offset="0.42" stop-color="#381e43"/><stop offset="0.61" stop-color="#5d02c1"/><stop offset="0.83" stop-color="#690eea"/><stop offset="1" stop-color="#b50eea"/></radialGradient><radialGradient id="radial-gradient-10" cx="-707.28" cy="1050.28" r="41.17" xlink:href="#radial-gradient-9"/><radialGradient id="radial-gradient-11" cx="-722.35" cy="1075.12" r="43.5" xlink:href="#radial-gradient-9"/><radialGradient id="radial-gradient-12" cx="-747.17" cy="1090.19" r="41.17" xlink:href="#radial-gradient-9"/><radialGradient id="radial-gradient-13" cx="-771.99" cy="1075.1" r="43.5" xlink:href="#radial-gradient-9"/><radialGradient id="radial-gradient-14" cx="-787.07" cy="1050.3" r="41.17" xlink:href="#radial-gradient-9"/><radialGradient id="radial-gradient-15" cx="-772" cy="1025.48" r="43.48" xlink:href="#radial-gradient-9"/><radialGradient id="radial-gradient-16" cx="-747.18" cy="1010.39" r="41.17" xlink:href="#radial-gradient-9"/><radialGradient id="radial-gradient-17" cx="-859.53" cy="-2005.19" r="16.19" gradientTransform="translate(-1895.19 967.72) rotate(90)" gradientUnits="userSpaceOnUse"><stop offset="0.17" stop-color="#381e43"/><stop offset="0.48" stop-color="#5d02c1"/><stop offset="0.79" stop-color="#690eea"/><stop offset="1" stop-color="#b50eea"/></radialGradient><radialGradient id="radial-gradient-18" cx="67.78" cy="-1135.03" r="16.19" gradientTransform="translate(-747.17 876.37) rotate(45)" xlink:href="#radial-gradient-17"/><radialGradient id="radial-gradient-19" cx="108.19" cy="135.97" r="16.19" gradientTransform="matrix(1, 0, 0, 1, 0, 0)" xlink:href="#radial-gradient-17"/><radialGradient id="radial-gradient-20" cx="-761.97" cy="1063.28" r="16.19" gradientTransform="translate(-91.35 -1148.02) rotate(-45)" xlink:href="#radial-gradient-17"/><radialGradient id="radial-gradient-21" cx="-2032.97" cy="1103.69" r="16.19" gradientTransform="translate(-967.72 -1895.19) rotate(-90)" xlink:href="#radial-gradient-17"/><radialGradient id="radial-gradient-22" cx="-2960.28" cy="233.53" r="16.19" gradientTransform="translate(-2115.74 -1803.84) rotate(-135)" xlink:href="#radial-gradient-17"/><radialGradient id="radial-gradient-23" cx="-3000.69" cy="-1037.47" r="16.19" gradientTransform="translate(-2862.91 -927.47) rotate(180)" xlink:href="#radial-gradient-17"/><radialGradient id="radial-gradient-24" cx="-2130.53" cy="-1964.78" r="16.19" gradientTransform="translate(-2771.56 220.55) rotate(135)" xlink:href="#radial-gradient-17"/></defs><path d="M421.14,123.68c0,24.32-4.86,38.09-15.77,45.64V170l18.29-.66V182.4H362.42c-42.78,0-58.38-13.76-58.38-58.72s15.6-60.07,58.55-60.07C405.88,63.61,421.14,78.72,421.14,123.68Zm-58.55,46c33.39,0,42.28-10.4,42.28-46,0-35.4-8.89-47.31-42.28-47.31s-42.28,11.91-42.28,47.31C320.31,159.24,329.2,169.64,362.59,169.64Z" style="fill:#381e43"/><path d="M451.17,130.39h55v12.75h-55Z" style="fill:#381e43"/><path d="M584.39,182.4c-39.26,0-49-26.17-49-58.88S545,65,585.23,65H630.7V77.72H590.43c-29.36,0-38.75,13.91-38.75,45.8s9.06,46.12,37.91,46.12h42.78V182.4Z" style="fill:#381e43"/><path d="M701.49,182.4V77.72H654V65H764.58V77.72H717.1V182.4Z" style="fill:#381e43"/><path d="M789.58,82.74c0-12.58,6.21-17.78,17.28-17.78h54.36c21.64,0,28.52,13.76,28.52,35.56,0,22.49-6.38,37.42-26.68,37.42h-19v.84l48.16,43.62H871.45l-45-41.28c-2.18-2-4.36-4.52-4.36-7.37v-2.69c0-3.52,2.51-5.87,7-5.87h28.69c14.26,0,15.6-10.4,15.6-24.67,0-14.59-2.35-22.8-18.12-22.8H813.57c-5.37,0-8.39,1.67-8.39,8V182.4h-15.6Z" style="fill:#381e43"/><path d="M938.9,182.4c-8.56,0-14.94-3.35-14.94-14.09V65h15.61V162.6c0,5.2,1.67,7,7.38,7H1012V182.4Z" style="fill:#381e43"/><path d="M123,0A65.71,65.71,0,0,0,95.85,125.55a27.27,27.27,0,0,1,3-15.25,51,51,0,0,1-11.72-8.76,50.7,50.7,0,1,1,60,8.73,27.31,27.31,0,0,1,3,15.23,65.77,65.77,0,0,0,38.55-59.81A65.69,65.69,0,0,0,123,0Z" style="opacity:0.7000000000000001;fill:url(#radial-gradient)"/><path d="M117,36a65.78,65.78,0,0,0-15,69.56c.54-.64,1.1-1.27,1.7-1.87A27.16,27.16,0,0,1,114.91,97,50.7,50.7,0,1,1,149,131.05a27.08,27.08,0,0,1-6.77,11.2c-.6.6-1.22,1.17-1.86,1.7A65.69,65.69,0,1,0,117,36Z" style="opacity:0.7000000000000001;fill:url(#radial-gradient-2)"/><path d="M36,36A65.68,65.68,0,0,0,105.58,144a24.74,24.74,0,0,1-1.87-1.7A27.16,27.16,0,0,1,97,131.05,50.69,50.69,0,1,1,131.05,97a27,27,0,0,1,11.2,6.76c.6.6,1.17,1.22,1.7,1.86A65.68,65.68,0,0,0,36,36Z" style="opacity:0.7000000000000001;fill:url(#radial-gradient-3)"/><path d="M110.3,147.11a50.72,50.72,0,1,1,0-48.25,27.39,27.39,0,0,1,15.23-3,65.54,65.54,0,1,0,0,54.28A27.37,27.37,0,0,1,110.3,147.11Z" style="opacity:0.7000000000000001;fill:url(#radial-gradient-4)"/><path d="M142.25,142.25a27,27,0,0,1-11.2,6.76A50.7,50.7,0,1,1,97,114.92a27,27,0,0,1,6.76-11.21c.6-.6,1.22-1.16,1.86-1.69A65.69,65.69,0,1,0,144,140.39,24.62,24.62,0,0,1,142.25,142.25Z" style="opacity:0.7000000000000001;fill:url(#radial-gradient-5)"/><path d="M147.1,135.69a50.59,50.59,0,1,1-48.25,0,27.29,27.29,0,0,1-3-15.25,65.74,65.74,0,1,0,54.27,0A27.31,27.31,0,0,1,147.1,135.69Z" style="opacity:0.7000000000000001;fill:url(#radial-gradient-6)"/><path d="M140.39,102c.64.54,1.26,1.1,1.86,1.7a27,27,0,0,1,6.76,11.2A50.7,50.7,0,1,1,114.92,149a27.18,27.18,0,0,1-11.21-6.77c-.6-.6-1.16-1.22-1.69-1.86A65.69,65.69,0,1,0,140.39,102Z" style="opacity:0.7000000000000001;fill:url(#radial-gradient-7)"/><path d="M180.27,57.28a65.77,65.77,0,0,0-59.81,38.57,27.3,27.3,0,0,1,15.23,3,50.69,50.69,0,1,1,0,48.24,27.27,27.27,0,0,1-15.22,3,65.68,65.68,0,1,0,59.8-92.84Z" style="opacity:0.7000000000000001;fill:url(#radial-gradient-8)"/><path d="M123,44.38A43.56,43.56,0,0,0,79.47,87.89h0a43.25,43.25,0,0,0,12.74,30.76,45.83,45.83,0,0,0,3.54,3.17,27.21,27.21,0,0,1,5.59-15.39,28.28,28.28,0,0,1-6.87-18.54h0a28.51,28.51,0,1,1,50.15,18.53,27.21,27.21,0,0,1,5.59,15.39q1.83-1.49,3.53-3.16A43.51,43.51,0,0,0,123,44.38Z" style="opacity:0.7000000000000001;fill:url(#radial-gradient-9)"/><path d="M117,67.4a43.41,43.41,0,0,0-12.45,35.49A27.06,27.06,0,0,1,119.4,96,28.5,28.5,0,1,1,150,126.56a27.09,27.09,0,0,1-6.92,14.82A43.49,43.49,0,1,0,117,67.4Z" style="opacity:0.7000000000000001;fill:url(#radial-gradient-10)"/><path d="M158.08,79.47h0a43.44,43.44,0,0,0-33.9,16.29,27.08,27.08,0,0,1,15.37,5.59,28.49,28.49,0,1,1,0,43.27,27.08,27.08,0,0,1-15.38,5.59,43.5,43.5,0,1,0,33.92-70.74Z" style="opacity:0.7000000000000001;fill:url(#radial-gradient-11)"/><path d="M143.08,104.58A27,27,0,0,1,150,119.4,28.5,28.5,0,1,1,119.4,150a27.13,27.13,0,0,1-14.82-6.92,43.51,43.51,0,1,0,38.5-38.5Z" style="opacity:0.7000000000000001;fill:url(#radial-gradient-12)"/><path d="M144.63,139.54a28.51,28.51,0,1,1-43.29,0,27.07,27.07,0,0,1-5.58-15.38,40.45,40.45,0,0,0-3.53,3.16,43.49,43.49,0,1,0,74.26,30.76h0a43.19,43.19,0,0,0-12.74-30.76,45.83,45.83,0,0,0-3.54-3.17A27.2,27.2,0,0,1,144.63,139.54Z" style="opacity:0.7000000000000001;fill:url(#radial-gradient-13)"/><path d="M126.57,150A28.5,28.5,0,1,1,96,119.41a27.11,27.11,0,0,1,6.91-14.83,43.5,43.5,0,1,0,38.51,38.5A27.16,27.16,0,0,1,126.57,150Z" style="opacity:0.7000000000000001;fill:url(#radial-gradient-14)"/><path d="M106.42,144.62a28.37,28.37,0,0,1-18.53,6.87h0a28.51,28.51,0,1,1,18.52-50.14,27.12,27.12,0,0,1,15.37-5.59,43.49,43.49,0,1,0-33.89,70.73h0a43.34,43.34,0,0,0,30.74-12.76,42.2,42.2,0,0,0,3.16-3.52A27.19,27.19,0,0,1,106.42,144.62Z" style="opacity:0.7000000000000001;fill:url(#radial-gradient-15)"/><path d="M67.4,67.41a43.48,43.48,0,0,0,35.49,74A27.09,27.09,0,0,1,96,126.57,28.5,28.5,0,1,1,126.56,96a27.08,27.08,0,0,1,14.82,6.91,43.48,43.48,0,0,0-74-35.47Z" style="opacity:0.7000000000000001;fill:url(#radial-gradient-16)"/><path d="M95.73,123A27.25,27.25,0,0,1,123,95.73c.69,0,1.36,0,2,.08A21.23,21.23,0,0,0,95.81,125C95.76,124.36,95.73,123.68,95.73,123Z" style="opacity:0.7000000000000001;fill:url(#radial-gradient-17)"/><g style="opacity:0.7000000000000001"><path d="M103.71,142.25a27.26,27.26,0,0,1,0-38.54c.48-.48,1-.94,1.5-1.38a21.23,21.23,0,0,0,0,41.32C104.71,143.21,104.2,142.74,103.71,142.25Z" style="fill:url(#radial-gradient-18)"/></g><g style="opacity:0.7000000000000001"><path d="M123,150.24A27.26,27.26,0,0,1,95.73,123c0-.68,0-1.36.08-2A21.23,21.23,0,0,0,125,150.15C124.36,150.2,123.68,150.24,123,150.24Z" style="fill:url(#radial-gradient-19)"/></g><g style="opacity:0.7000000000000001"><path d="M142.25,142.25a27.24,27.24,0,0,1-38.54,0c-.48-.48-.94-1-1.38-1.49a21.23,21.23,0,0,0,41.32,0C143.21,141.25,142.74,141.76,142.25,142.25Z" style="fill:url(#radial-gradient-20)"/></g><g style="opacity:0.7000000000000001"><path d="M150.24,123A27.27,27.27,0,0,1,123,150.24c-.68,0-1.36,0-2-.09a21.23,21.23,0,0,0,29.2-29.23C150.2,121.6,150.24,122.29,150.24,123Z" style="fill:url(#radial-gradient-21)"/></g><g style="opacity:0.7000000000000001"><path d="M142.25,103.71a27.24,27.24,0,0,1,0,38.54c-.48.49-1,.94-1.49,1.38a21.23,21.23,0,0,0,0-41.32C141.25,102.76,141.76,103.22,142.25,103.71Z" style="fill:url(#radial-gradient-22)"/></g><g style="opacity:0.7000000000000001"><path d="M123,95.73A27.26,27.26,0,0,1,150.24,123c0,.69,0,1.36-.09,2a21.23,21.23,0,0,0-29.23-29.21C121.6,95.76,122.29,95.73,123,95.73Z" style="fill:url(#radial-gradient-23)"/></g><g style="opacity:0.7000000000000001"><path d="M103.71,103.71a27.26,27.26,0,0,1,38.54,0c.49.48.94,1,1.38,1.5a21.23,21.23,0,0,0-41.32,0C102.76,104.71,103.22,104.2,103.71,103.71Z" style="fill:url(#radial-gradient-24)"/></g></svg>
